<svg xmlns="http://www.w3.org/2000/svg" width="1024" height="1024" viewBox="0 0 1024 1024" fill="none">
  <defs>
    <radialGradient id="leafGradient" cx="50%" cy="50%" r="44%">
      <stop offset="0%" stop-color="#199847" />
      <stop offset="100%" stop-color="#44D864" />
    </radialGradient>
    <path id="leaf" d="M 582.656,421.067 L 585.022,421.750 L 587.224,422.245 L 589.348,422.715 L 591.431,423.180 L 593.484,423.653 L 595.515,424.138 L 597.525,424.639 L 599.517,425.159 L 601.494,425.698 L 603.455,426.258 L 605.403,426.838 L 607.337,427.440 L 609.259,428.064 L 611.169,428.710 L 613.067,429.378 L 614.953,430.068 L 616.829,430.779 L 618.693,431.513 L 620.547,432.268 L 622.390,433.044 L 624.222,433.841 L 626.045,434.660 L 627.857,435.499 L 629.660,436.359 L 631.453,437.239 L 633.236,438.139 L 635.009,439.060 L 636.773,440.000 L 638.528,440.959 L 640.274,441.938 L 642.010,442.936 L 643.738,443.953 L 645.457,444.989 L 647.168,446.043 L 648.870,447.115 L 650.564,448.206 L 652.249,449.315 L 653.927,450.442 L 655.597,451.587 L 657.259,452.749 L 658.913,453.929 L 660.560,455.126 L 662.199,456.341 L 663.832,457.573 L 665.457,458.822 L 667.075,460.088 L 668.687,461.372 L 670.292,462.672 L 671.891,463.990 L 673.483,465.325 L 675.069,466.677 L 676.649,468.045 L 678.223,469.432 L 679.792,470.835 L 681.354,472.255 L 682.911,473.693 L 684.462,475.148 L 686.008,476.620 L 687.549,478.110 L 689.085,479.618 L 690.615,481.143 L 692.140,482.686 L 693.661,484.247 L 695.176,485.826 L 696.687,487.424 L 698.192,489.040 L 699.693,490.674 L 701.189,492.327 L 702.681,494.000 L 704.167,495.691 L 705.649,497.402 L 707.126,499.132 L 708.598,500.882 L 710.065,502.652 L 711.528,504.443 L 712.985,506.254 L 714.438,508.085 L 715.885,509.938 L 717.327,511.811 L 718.764,513.707 L 720.195,515.624 L 721.621,517.562 L 723.041,519.524 L 724.455,521.507 L 725.864,523.514 L 727.265,525.543 L 728.661,527.596 L 730.050,529.672 L 731.432,531.772 L 732.807,533.896 L 734.175,536.045 L 735.535,538.219 L 736.887,540.417 L 738.231,542.640 L 739.567,544.889 L 740.894,547.164 L 742.212,549.464 L 743.521,551.791 L 744.820,554.145 L 746.108,556.525 L 747.387,558.932 L 748.654,561.366 L 749.911,563.828 L 751.155,566.317 L 752.388,568.834 L 753.609,571.379 L 754.816,573.953 L 756.011,576.555 L 757.192,579.186 L 758.358,581.845 L 759.511,584.534 L 760.648,587.252 L 761.770,589.999 L 762.876,592.776 L 763.966,595.582 L 765.039,598.418 L 766.095,601.285 L 767.134,604.181 L 768.155,607.107 L 769.158,610.064 L 770.142,613.050 L 771.107,616.068 L 772.054,619.116 L 772.981,622.195 L 773.888,625.304 L 774.776,628.445 L 775.645,631.616 L 776.495,634.818 L 777.325,638.052 L 778.137,641.318 L 778.933,644.615 L 779.712,647.944 L 780.477,651.306 L 781.232,654.701 L 781.982,658.130 L 782.734,661.594 L 783.505,665.096 L 784.329,668.641 L 785.416,672.286 L 795.681,673.354 L 797.503,669.935 L 798.978,666.433 L 800.314,662.905 L 801.548,659.357 L 802.695,655.794 L 803.764,652.216 L 804.760,648.628 L 805.687,645.028 L 806.548,641.420 L 807.344,637.805 L 808.078,634.183 L 808.749,630.556 L 809.359,626.925 L 809.909,623.291 L 810.399,619.655 L 810.830,616.018 L 811.202,612.381 L 811.515,608.745 L 811.770,605.111 L 811.967,601.480 L 812.106,597.853 L 812.188,594.231 L 812.212,590.615 L 812.179,587.007 L 812.089,583.406 L 811.942,579.814 L 811.739,576.232 L 811.480,572.660 L 811.164,569.101 L 810.793,565.554 L 810.366,562.021 L 809.884,558.503 L 809.346,555.001 L 808.754,551.515 L 808.107,548.047 L 807.407,544.598 L 806.652,541.168 L 805.844,537.758 L 804.982,534.370 L 804.068,531.005 L 803.101,527.662 L 802.083,524.344 L 801.012,521.051 L 799.891,517.785 L 798.719,514.545 L 797.497,511.333 L 796.226,508.151 L 794.905,504.998 L 793.536,501.875 L 792.118,498.784 L 790.654,495.726 L 789.142,492.700 L 787.585,489.709 L 785.981,486.753 L 784.333,483.832 L 782.641,480.948 L 780.905,478.101 L 779.127,475.293 L 777.306,472.523 L 775.444,469.793 L 773.542,467.104 L 771.600,464.455 L 769.619,461.849 L 767.600,459.285 L 765.543,456.764 L 763.450,454.287 L 761.322,451.855 L 759.159,449.467 L 756.962,447.126 L 754.733,444.831 L 752.471,442.582 L 750.179,440.382 L 747.856,438.229 L 745.504,436.125 L 743.125,434.070 L 740.718,432.064 L 738.285,430.108 L 735.827,428.203 L 733.346,426.348 L 730.841,424.545 L 728.314,422.793 L 725.766,421.093 L 723.199,419.445 L 720.612,417.849 L 718.008,416.307 L 715.387,414.817 L 712.751,413.380 L 710.101,411.997 L 707.437,410.668 L 704.761,409.392 L 702.073,408.170 L 699.376,407.002 L 696.670,405.889 L 693.956,404.829 L 691.235,403.823 L 688.509,402.872 L 685.778,401.975 L 683.044,401.132 L 680.308,400.343 L 677.570,399.608 L 674.833,398.927 L 672.096,398.300 L 669.362,397.726 L 666.631,397.206 L 663.904,396.739 L 661.183,396.325 L 658.468,395.964 L 655.761,395.655 L 653.063,395.399 L 650.374,395.195 L 647.696,395.042 L 645.029,394.941 L 642.376,394.891 L 639.736,394.891 L 637.111,394.942 L 634.502,395.043 L 631.909,395.193 L 629.334,395.393 L 626.778,395.641 L 624.241,395.937 L 621.725,396.282 L 619.230,396.674 L 616.758,397.114 L 614.308,397.600 L 611.883,398.133 L 609.482,398.712 L 607.107,399.338 L 604.758,400.009 L 602.436,400.726 L 600.142,401.490 L 597.876,402.299 L 595.639,403.156 L 593.433,404.061 L 591.256,405.016 L 589.110,406.024 L 586.995,407.091 L 584.913,408.225 L 582.879,409.447 L 580.860,410.905 Z" fill="url(#leafGradient)" />
  </defs>
  <g>
    <use href="#leaf" transform="rotate(-90 512.0 512.0)" />
    <use href="#leaf" transform="rotate(-30 512.0 512.0)" />
    <use href="#leaf" transform="rotate(30 512.0 512.0)" />
    <use href="#leaf" transform="rotate(90 512.0 512.0)" />
    <use href="#leaf" transform="rotate(150 512.0 512.0)" />
    <use href="#leaf" transform="rotate(210 512.0 512.0)" />
  </g>
</svg>
