<svg xmlns="http://www.w3.org/2000/svg" width="1024" height="1024" viewBox="0 0 1024 1024" fill="none">
  <defs>
    <radialGradient id="leafGradient" cx="50%" cy="50%" r="44%">
      <stop offset="0%" stop-color="#199847" />
      <stop offset="100%" stop-color="#44D864" />
    </radialGradient>
    <path id="leaf" d="M 578.468,425.709 L 580.698,426.589 L 582.733,427.246 L 584.661,427.866 L 586.538,428.471 L 588.379,429.075 L 590.192,429.682 L 591.979,430.298 L 593.745,430.925 L 595.492,431.563 L 597.219,432.215 L 598.930,432.882 L 600.625,433.562 L 602.304,434.258 L 603.968,434.968 L 605.618,435.694 L 607.254,436.435 L 608.878,437.190 L 610.488,437.961 L 612.085,438.746 L 613.671,439.546 L 615.244,440.360 L 616.806,441.189 L 618.356,442.031 L 619.896,442.887 L 621.425,443.757 L 622.943,444.640 L 624.451,445.536 L 625.949,446.444 L 627.438,447.366 L 628.917,448.299 L 630.387,449.245 L 631.848,450.203 L 633.301,451.173 L 634.745,452.154 L 636.182,453.147 L 637.610,454.151 L 639.032,455.166 L 640.446,456.192 L 641.853,457.229 L 643.254,458.277 L 644.648,459.335 L 646.036,460.404 L 647.419,461.484 L 648.796,462.573 L 650.168,463.674 L 651.534,464.785 L 652.897,465.906 L 654.255,467.037 L 655.608,468.179 L 656.958,469.331 L 658.305,470.493 L 659.648,471.666 L 660.988,472.850 L 662.325,474.044 L 663.659,475.249 L 664.992,476.464 L 666.322,477.691 L 667.650,478.928 L 668.977,480.177 L 670.302,481.437 L 671.626,482.709 L 672.949,483.992 L 674.272,485.287 L 675.593,486.595 L 676.914,487.914 L 678.235,489.247 L 679.555,490.592 L 680.876,491.949 L 682.196,493.321 L 683.517,494.705 L 684.838,496.104 L 686.160,497.517 L 687.482,498.944 L 688.804,500.386 L 690.127,501.843 L 691.451,503.315 L 692.775,504.803 L 694.100,506.307 L 695.426,507.827 L 696.753,509.364 L 698.080,510.918 L 699.407,512.490 L 700.736,514.079 L 702.065,515.687 L 703.394,517.312 L 704.723,518.957 L 706.053,520.621 L 707.383,522.305 L 708.713,524.009 L 710.042,525.733 L 711.372,527.477 L 712.700,529.243 L 714.028,531.031 L 715.355,532.840 L 716.681,534.672 L 718.006,536.526 L 719.328,538.403 L 720.649,540.304 L 721.968,542.229 L 723.284,544.177 L 724.597,546.150 L 725.907,548.148 L 727.213,550.172 L 728.516,552.220 L 729.815,554.295 L 731.109,556.396 L 732.399,558.523 L 733.683,560.677 L 734.961,562.859 L 736.234,565.068 L 737.500,567.304 L 738.759,569.569 L 740.011,571.862 L 741.256,574.184 L 742.493,576.535 L 743.721,578.914 L 744.941,581.324 L 746.151,583.762 L 747.352,586.231 L 748.544,588.730 L 749.726,591.259 L 750.897,593.819 L 752.058,596.410 L 753.208,599.031 L 754.348,601.684 L 755.477,604.368 L 756.595,607.084 L 757.704,609.832 L 758.802,612.611 L 759.892,615.423 L 760.974,618.268 L 762.050,621.146 L 763.122,624.057 L 764.194,627.001 L 765.272,629.981 L 766.365,632.996 L 767.490,636.048 L 768.688,639.141 L 770.192,642.343 L 789.759,643.058 L 791.498,639.844 L 792.856,636.540 L 794.068,633.216 L 795.175,629.875 L 796.194,626.521 L 797.135,623.155 L 798.005,619.778 L 798.806,616.393 L 799.543,612.999 L 800.216,609.599 L 800.829,606.193 L 801.382,602.782 L 801.875,599.368 L 802.311,595.951 L 802.689,592.532 L 803.010,589.113 L 803.274,585.694 L 803.482,582.276 L 803.635,578.860 L 803.731,575.447 L 803.773,572.039 L 803.759,568.635 L 803.690,565.238 L 803.566,561.847 L 803.388,558.464 L 803.156,555.090 L 802.869,551.725 L 802.529,548.372 L 802.135,545.030 L 801.687,541.700 L 801.186,538.384 L 800.633,535.082 L 800.026,531.796 L 799.367,528.526 L 798.655,525.274 L 797.892,522.040 L 797.077,518.825 L 796.211,515.630 L 795.294,512.456 L 794.326,509.304 L 793.308,506.175 L 792.240,503.070 L 791.123,499.989 L 789.957,496.934 L 788.742,493.906 L 787.479,490.905 L 786.169,487.933 L 784.811,484.990 L 783.408,482.077 L 781.958,479.194 L 780.462,476.344 L 778.922,473.526 L 777.338,470.742 L 775.710,467.992 L 774.039,465.278 L 772.326,462.599 L 770.572,459.957 L 768.776,457.352 L 766.941,454.786 L 765.066,452.259 L 763.152,449.772 L 761.200,447.325 L 759.212,444.919 L 757.187,442.555 L 755.126,440.233 L 753.031,437.955 L 750.902,435.720 L 748.741,433.530 L 746.547,431.385 L 744.322,429.286 L 742.067,427.233 L 739.783,425.226 L 737.471,423.267 L 735.131,421.355 L 732.765,419.492 L 730.373,417.677 L 727.957,415.912 L 725.518,414.196 L 723.057,412.530 L 720.574,410.914 L 718.071,409.349 L 715.548,407.835 L 713.008,406.372 L 710.450,404.960 L 707.876,403.601 L 705.288,402.293 L 702.685,401.038 L 700.070,399.835 L 697.443,398.685 L 694.805,397.588 L 692.158,396.543 L 689.502,395.552 L 686.839,394.613 L 684.170,393.728 L 681.496,392.895 L 678.818,392.116 L 676.137,391.390 L 673.454,390.717 L 670.771,390.096 L 668.088,389.529 L 665.406,389.014 L 662.728,388.552 L 660.052,388.142 L 657.382,387.785 L 654.718,387.480 L 652.061,387.226 L 649.411,387.024 L 646.771,386.873 L 644.141,386.773 L 641.523,386.724 L 638.916,386.725 L 636.323,386.777 L 633.744,386.877 L 631.181,387.028 L 628.634,387.227 L 626.104,387.475 L 623.593,387.771 L 621.100,388.114 L 618.628,388.505 L 616.177,388.943 L 613.749,389.428 L 611.343,389.959 L 608.961,390.536 L 606.604,391.158 L 604.272,391.826 L 601.967,392.538 L 599.690,393.296 L 597.440,394.098 L 595.220,394.945 L 593.029,395.837 L 590.869,396.775 L 588.741,397.759 L 586.646,398.791 L 584.583,399.873 L 582.556,401.009 L 580.565,402.204 L 578.617,403.470 L 576.745,404.828 L 574.929,406.452 Z" fill="url(#leafGradient)" />
  </defs>
  <g>
    <use href="#leaf" transform="rotate(-90 512.0 512.0)" />
    <use href="#leaf" transform="rotate(-30 512.0 512.0)" />
    <use href="#leaf" transform="rotate(30 512.0 512.0)" />
    <use href="#leaf" transform="rotate(90 512.0 512.0)" />
    <use href="#leaf" transform="rotate(150 512.0 512.0)" />
    <use href="#leaf" transform="rotate(210 512.0 512.0)" />
  </g>
</svg>
